<svg width="19" height="19" viewBox="0 0 19 19" fill="none" xmlns="http://www.w3.org/2000/svg">
<path d="M9.5 0C7.62108 0 5.78435 0.557165 4.22209 1.60104C2.65982 2.64491 1.44218 4.12861 0.723149 5.86451C0.00411622 7.6004 -0.184015 9.51054 0.182544 11.3534C0.549104 13.1962 1.45389 14.8889 2.78249 16.2175C4.11109 17.5461 5.80383 18.4509 7.64665 18.8175C9.48946 19.184 11.3996 18.9959 13.1355 18.2768C14.8714 17.5578 16.3551 16.3402 17.399 14.7779C18.4428 13.2156 19 11.3789 19 9.5C18.9973 6.98128 17.9955 4.5665 16.2145 2.78549C14.4335 1.00449 12.0187 0.00272419 9.5 0V0ZM16.3455 5.54167H13.7956C13.2248 4.21878 12.4732 2.98148 11.5623 1.86517C13.5783 2.41373 15.2968 3.73466 16.3455 5.54167ZM13.0625 9.5C13.056 10.306 12.929 11.1065 12.6857 11.875H6.31434C6.07102 11.1065 5.944 10.306 5.9375 9.5C5.944 8.69397 6.07102 7.89345 6.31434 7.125H12.6857C12.929 7.89345 13.056 8.69397 13.0625 9.5ZM6.94925 13.4583H12.0508C11.3788 14.7849 10.5198 16.0082 9.5 17.0905C8.47984 16.0085 7.62078 14.7852 6.94925 13.4583ZM6.94925 5.54167C7.62119 4.21505 8.48022 2.99183 9.5 1.9095C10.5202 2.99153 11.3792 4.2148 12.0508 5.54167H6.94925ZM7.44167 1.86517C6.5294 2.98124 5.77647 4.21855 5.20442 5.54167H2.65446C3.7041 3.73384 5.42423 2.4128 7.44167 1.86517ZM1.9483 7.125H4.67084C4.4656 7.90015 4.3592 8.69815 4.35417 9.5C4.3592 10.3018 4.4656 11.0998 4.67084 11.875H1.9483C1.46169 10.3291 1.46169 8.67094 1.9483 7.125ZM2.65446 13.4583H5.20442C5.77647 14.7814 6.5294 16.0187 7.44167 17.1348C5.42423 16.5872 3.7041 15.2662 2.65446 13.4583ZM11.5623 17.1348C12.4732 16.0185 13.2248 14.7812 13.7956 13.4583H16.3455C15.2968 15.2653 13.5783 16.5863 11.5623 17.1348ZM17.0517 11.875H14.3292C14.5344 11.0998 14.6408 10.3018 14.6458 9.5C14.6408 8.69815 14.5344 7.90015 14.3292 7.125H17.0501C17.5367 8.67094 17.5367 10.3291 17.0501 11.875H17.0517Z" fill="white"/>
</svg>
