<svg width="12" height="13" viewBox="0 0 12 13" fill="#7C80FC" xmlns="http://www.w3.org/2000/svg">
<path d="M12 11.7V2.6C12 1.88305 11.402 1.3 10.6667 1.3H9.33333V0H8V1.3H4V0H2.66667V1.3H1.33333C0.598 1.3 0 1.88305 0 2.6V11.7C0 12.4169 0.598 13 1.33333 13H10.6667C11.402 13 12 12.4169 12 11.7ZM4 10.4H2.66667V9.1H4V10.4ZM4 7.8H2.66667V6.5H4V7.8ZM6.66667 10.4H5.33333V9.1H6.66667V10.4ZM6.66667 7.8H5.33333V6.5H6.66667V7.8ZM9.33333 10.4H8V9.1H9.33333V10.4ZM9.33333 7.8H8V6.5H9.33333V7.8ZM10.6667 4.55H1.33333V3.25H10.6667V4.55Z" fill="#7C80FC"/>
</svg>
