<svg width="13" height="17" viewBox="0 0 13 17" fill="none" xmlns="http://www.w3.org/2000/svg">
<path d="M8.08852 3.29928L8.08853 3.29925C8.18638 3.0235 8.48814 2.8784 8.76494 2.9766M8.08852 3.29928L8.41122 3.97569C10.3239 4.65296 11.609 6.47078 11.609 8.49974C11.609 9.31652 11.3995 10.1238 11.0041 10.8337C10.8614 11.0895 10.9533 11.4121 11.209 11.5545M8.08852 3.29928C7.9909 3.5749 8.13529 3.87806 8.41121 3.97568L8.08852 3.29928ZM8.76494 2.9766L8.74823 3.02372M8.76494 2.9766C8.76493 2.9766 8.76492 2.97659 8.76491 2.97659L8.74823 3.02372M8.76494 2.9766C11.1 3.80322 12.6687 6.0228 12.6687 8.5C12.6687 9.49729 12.4133 10.4828 11.9299 11.3499L11.9299 11.3499C11.8326 11.5236 11.6523 11.6217 11.4663 11.6217C11.379 11.6217 11.2905 11.6002 11.209 11.5545M8.74823 3.02372C8.49758 2.9348 8.22431 3.0661 8.13565 3.31597L8.74823 3.02372ZM11.209 11.5545C11.209 11.5546 11.209 11.5546 11.2091 11.5546L11.2334 11.5109L11.209 11.5545C11.209 11.5545 11.209 11.5545 11.209 11.5545ZM2.17865 12.0899C1.37463 11.0549 0.95 9.81319 0.95 8.49974C0.95 6.02255 2.51843 3.80323 4.85374 2.97635C4.85376 2.97634 4.85377 2.97634 4.85379 2.97633L4.87047 3.02346L2.17865 12.0899ZM2.17865 12.0899C2.28294 12.2246 2.43951 12.2949 2.59749 12.2949M2.17865 12.0899L2.59749 12.2949M2.59749 12.2949C2.71083 12.2949 2.82547 12.2587 2.92196 12.1838L2.59749 12.2949ZM5.20749 3.97542C5.48346 3.87804 5.62777 3.57486 5.53019 3.29903L2.97606 11.4709L3.01556 11.4402C3.01556 11.4402 3.01555 11.4402 3.01555 11.4402C2.35779 10.5925 2.00969 9.57601 2.00969 8.49974C2.00969 6.47077 3.29507 4.65269 5.20749 3.97542Z" fill="white" stroke="#A49FB6" stroke-width="0.1"/>
<path d="M4.85383 14.0225L4.85379 14.0225C2.51845 13.1956 0.95 10.9763 0.95 8.49984C0.95 7.84616 1.05724 7.20261 1.2694 6.58737L4.85383 14.0225ZM4.85383 14.0225C4.91231 14.0431 4.97202 14.0529 5.03064 14.0529C5.24881 14.0529 5.4532 13.9169 5.53043 13.6996L5.53044 13.6995M4.85383 14.0225L5.53044 13.6995M5.53044 13.6995C5.62806 13.4239 5.48367 13.1208 5.20775 13.0231C3.29507 12.3458 2.00995 10.5283 2.00995 8.49984C2.00995 7.96377 2.09822 7.43652 2.27165 6.93267L5.53044 13.6995ZM4.16291 1.95072L4.16292 1.95073L6.33247 3.07156L5.17759 5.3079C5.17759 5.30791 5.17758 5.30792 5.17758 5.30793C5.04319 5.56783 5.14546 5.88761 5.4055 6.02193C5.48324 6.06209 5.56628 6.08107 5.64816 6.08107C5.84012 6.08107 6.02531 5.97634 6.11974 5.79406L6.11978 5.794L7.5173 3.08709C7.65171 2.82718 7.54943 2.50766 7.28967 2.37333L7.28966 2.37333L4.64954 1.00907L4.64946 1.00902C4.38893 0.875029 4.06968 0.976828 3.93554 1.23669C3.80087 1.49685 3.90313 1.81638 4.16291 1.95072ZM8.08851 13.6998L8.08852 13.6998C8.16549 13.9172 8.36995 14.0529 8.58806 14.0529C8.64667 14.0529 8.70641 14.0431 8.76468 14.0225C11.1 13.1956 12.6684 10.9763 12.6684 8.49984C12.6684 6.93434 12.0589 5.46297 10.952 4.35662C10.7453 4.14965 10.4097 4.14936 10.2027 4.3569C9.9957 4.56366 9.99575 4.89928 10.203 5.10624C11.1096 6.01234 11.6088 7.21749 11.6088 8.49984C11.6088 10.5283 10.3237 12.3458 8.41127 13.0234C8.13526 13.1207 7.99092 13.4239 8.08851 13.6998Z" fill="white" stroke="#A49FB6" stroke-width="0.1"/>
<path d="M6.32889 14.6272L6.32889 14.6272C6.06884 14.4929 5.96659 14.1734 6.10096 13.9132C6.10096 13.9132 6.10096 13.9132 6.10097 13.9132L7.4985 11.2055L7.49853 11.2054C7.63278 10.9461 7.95194 10.8426 8.21252 10.9776C8.21254 10.9776 8.21255 10.9776 8.21257 10.9776L8.18957 11.022C8.42514 11.1437 8.5177 11.4331 8.39602 11.6686L6.32889 14.6272ZM6.32889 14.6272L8.969 15.9907L6.32889 14.6272ZM8.44044 11.6916L7.28606 13.9284L9.45535 15.0485L9.45535 15.0485C9.71539 15.1828 9.81766 15.5026 9.68328 15.7625L8.44044 11.6916ZM8.44044 11.6916C8.44044 11.6916 8.44044 11.6916 8.44045 11.6916L8.44044 11.6916Z" fill="white" stroke="#A49FB6" stroke-width="0.1"/>
</svg>
