<svg width="15" height="20" viewBox="0 0 15 20" fill="none" xmlns="http://www.w3.org/2000/svg">
<path d="M7.89155 0C4.77362 0 2.75413 1.27746 1.16862 3.5557C0.881007 3.96898 0.969679 4.53562 1.37089 4.83984L3.05597 6.11754C3.46116 6.42477 4.03769 6.35293 4.35491 5.95551C5.33339 4.72969 6.05921 4.02391 7.58761 4.02391C8.78933 4.02391 10.2757 4.79731 10.2757 5.96262C10.2757 6.84355 9.54851 7.29598 8.36194 7.96121C6.97823 8.73699 5.14714 9.70246 5.14714 12.1177V12.5C5.14714 13.0178 5.56687 13.4375 6.08464 13.4375H8.91554C9.43331 13.4375 9.85304 13.0178 9.85304 12.5V12.2745C9.85304 10.6003 14.7463 10.5305 14.7463 6C14.7464 2.58813 11.2072 0 7.89155 0ZM7.50011 14.5882C6.00808 14.5882 4.79421 15.8021 4.79421 17.2941C4.79421 18.7861 6.00808 20 7.50011 20C8.99214 20 10.206 18.7861 10.206 17.2941C10.206 15.8021 8.99214 14.5882 7.50011 14.5882Z" fill="#D8D8D8"/>
</svg>
