<svg width="18" height="18" viewBox="0 0 18 18" fill="none" xmlns="http://www.w3.org/2000/svg">
<path d="M15.3638 2.63617C11.8489 -0.878725 6.15107 -0.878725 2.63617 2.63617C-0.878725 6.15107 -0.878725 11.8489 2.63617 15.3638C6.15107 18.8787 11.8489 18.8787 15.3638 15.3638C18.8787 11.8489 18.878 6.15107 15.3638 2.63617ZM12.818 11.8C12.953 11.935 13.0288 12.1181 13.0288 12.309C13.0288 12.4999 12.953 12.683 12.818 12.818C12.683 12.953 12.4999 13.0288 12.309 13.0288C12.1181 13.0288 11.935 12.953 11.8 12.818L9 10.018L6.20003 12.818C6.13332 12.8851 6.05401 12.9383 5.96666 12.9747C5.8793 13.011 5.78562 13.0297 5.69101 13.0297C5.5964 13.0297 5.50272 13.011 5.41537 12.9747C5.32801 12.9383 5.2487 12.8851 5.18199 12.818C5.11507 12.7512 5.06199 12.6719 5.02576 12.5845C4.98954 12.4972 4.9709 12.4035 4.9709 12.309C4.9709 12.2144 4.98954 12.1208 5.02576 12.0335C5.06199 11.9461 5.11507 11.8668 5.18199 11.8L7.98196 9L5.18199 6.20003C5.04699 6.06503 4.97115 5.88193 4.97115 5.69101C4.97115 5.50009 5.04699 5.31699 5.18199 5.18199C5.31699 5.04699 5.50009 4.97115 5.69101 4.97115C5.88193 4.97115 6.06503 5.04699 6.20003 5.18199L9 7.98196L11.8 5.18199C11.8668 5.11515 11.9462 5.06212 12.0335 5.02595C12.1208 4.98977 12.2145 4.97115 12.309 4.97115C12.4035 4.97115 12.4971 4.98977 12.5845 5.02595C12.6718 5.06212 12.7512 5.11515 12.818 5.18199C12.8849 5.24884 12.9379 5.3282 12.9741 5.41553C13.0102 5.50287 13.0288 5.59648 13.0288 5.69101C13.0288 5.78555 13.0102 5.87915 12.9741 5.96649C12.9379 6.05383 12.8849 6.13319 12.818 6.20003L10.018 9L12.818 11.8Z" fill="#A49FB6"/>
</svg>
