<svg width="21" height="21" viewBox="0 0 21 21" fill="none" xmlns="http://www.w3.org/2000/svg">
<path d="M14.1111 18.2661L14.1111 18.266H14.1062H5.30963V18.2659L5.30471 18.2661C4.64629 18.2876 4.00611 18.0476 3.5242 17.5984C3.04297 17.1499 2.75867 16.5293 2.73326 15.872V6.71064C2.75867 6.05335 3.04297 5.43273 3.5242 4.98419C4.00611 4.53502 4.64629 4.29498 5.30471 4.31657L5.30471 4.31665H5.30963H10.4995C10.7493 4.31665 10.9888 4.21744 11.1654 4.04085C11.342 3.86427 11.4412 3.62476 11.4412 3.37502C11.4412 3.12529 11.342 2.88578 11.1654 2.70919C10.9888 2.5326 10.7493 2.43339 10.4995 2.43339H5.31114C4.1541 2.41028 3.035 2.84654 2.19888 3.64672C1.3624 4.44726 0.877354 5.54674 0.850042 6.70424L0.85 6.70424V6.70778V15.8748H0.849958L0.850042 15.8784C0.877354 17.0359 1.3624 18.1354 2.19888 18.9359C3.03501 19.7361 4.15411 20.1724 5.31116 20.1492H14.1047C15.2617 20.1724 16.3808 19.7361 17.217 18.9359C18.0534 18.1354 18.5385 17.0359 18.5658 15.8784L18.5658 15.8784V15.8748V10.4997C18.5658 10.2499 18.4666 10.0104 18.29 9.83385C18.1134 9.65726 17.8739 9.55805 17.6242 9.55805C17.3745 9.55805 17.135 9.65726 16.9584 9.83385C16.7818 10.0104 16.6826 10.2499 16.6826 10.4997V15.872C16.6572 16.5293 16.3729 17.1499 15.8916 17.5984C15.4097 18.0476 14.7695 18.2876 14.1111 18.2661Z" fill="white" stroke="white" stroke-width="0.3"/>
<path d="M19.2076 0.85H19.2081C19.3325 0.850402 19.4555 0.876506 19.5693 0.926672M19.2076 0.85L19.5698 0.926899C19.5697 0.926823 19.5695 0.926748 19.5693 0.926672M19.2076 0.85H13.6662C13.4165 0.85 13.177 0.949207 13.0004 1.1258C12.8238 1.30239 12.7246 1.54189 12.7246 1.79163C12.7246 2.04136 12.8238 2.28087 13.0004 2.45746C13.177 2.63405 13.4165 2.73326 13.6662 2.73326H16.9345L9.04325 10.6245C8.95376 10.7112 8.88236 10.8148 8.83319 10.9292C8.78384 11.0441 8.75786 11.1677 8.75677 11.2927C8.75569 11.4177 8.77951 11.5417 8.82686 11.6575C8.8742 11.7732 8.94412 11.8783 9.03254 11.9667C9.12095 12.0551 9.22608 12.1251 9.3418 12.1724L9.3986 12.0336L9.34181 12.1724C9.45753 12.2198 9.58152 12.2436 9.70655 12.2425C9.83158 12.2414 9.95514 12.2154 10.07 12.1661C10.1845 12.1169 10.2881 12.0455 10.3747 11.956L18.266 4.06475M19.2076 0.85L18.266 4.06475M19.5693 0.926672C19.7381 0.999802 19.8824 1.11975 19.9852 1.27232C20.0881 1.42506 20.145 1.60408 20.1492 1.78818L20.1493 1.79163H20.1493V7.33303C20.1493 7.58277 20.0501 7.82227 19.8735 7.99886C19.6969 8.17545 19.4574 8.27466 19.2076 8.27466C18.9579 8.27466 18.7184 8.17545 18.5418 7.99886C18.3652 7.82227 18.266 7.58277 18.266 7.33303V4.06475M19.5693 0.926672L18.266 4.06475" fill="white" stroke="white" stroke-width="0.3"/>
</svg>
