<svg width="32" height="24" viewBox="0 0 32 24" fill="none" xmlns="http://www.w3.org/2000/svg">
<path fill-rule="evenodd" clip-rule="evenodd" d="M1.26912 0.390943C1.41331 0.29962 1.68594 0.175231 1.875 0.114474C2.19925 0.010275 2.99925 0.00383684 15.9788 0.000648978C29.1229 -0.00260139 29.7552 0.002399 30.1038 0.111224C30.3045 0.173856 30.5867 0.299808 30.7309 0.391068C30.875 0.482329 31.0936 0.657661 31.2167 0.780675C31.3397 0.903751 31.515 1.1224 31.6063 1.26654C31.6975 1.41075 31.8234 1.69297 31.8861 1.89368C31.9943 2.24028 32 2.74958 32 11.9986C32 21.2477 31.9943 21.757 31.8861 22.1036C31.8234 22.3043 31.6975 22.5865 31.6063 22.7307C31.515 22.8749 31.3397 23.0935 31.2167 23.2166C31.0936 23.3396 30.875 23.5149 30.7309 23.6062C30.5867 23.6975 30.3045 23.8234 30.1038 23.8861C29.7554 23.9949 29.1184 24 16 24C2.88163 24 2.24463 23.9949 1.89619 23.8861C1.6955 23.8234 1.41331 23.6975 1.26912 23.6062C1.125 23.5149 0.906375 23.3396 0.783312 23.2166C0.660313 23.0935 0.485 22.8749 0.39375 22.7307C0.3025 22.5865 0.176563 22.3043 0.113937 22.1036C0.00575 21.757 0 21.2477 0 11.9986C0 2.74958 0.00575 2.24028 0.113937 1.89368C0.176563 1.69297 0.3025 1.41075 0.39375 1.26654C0.485 1.1224 0.660313 0.903751 0.783312 0.780675C0.906375 0.657661 1.125 0.482266 1.26912 0.390943ZM6.95687 19.8093C6.86881 19.7046 6.68894 19.564 6.55713 19.4967C6.40525 19.4192 6.19638 19.3755 5.98688 19.3772C5.78625 19.3789 5.56706 19.4271 5.42944 19.4999C5.30469 19.5658 5.13075 19.7052 5.04287 19.8097L4.88306 19.9995L4.08219 19.9997C3.44488 19.9997 3.23656 20.022 3.06256 20.1091C2.94231 20.1691 2.806 20.2981 2.75975 20.3955C2.71019 20.4999 2.69125 20.6564 2.71375 20.7762C2.73475 20.8881 2.824 21.0475 2.91206 21.1303C3.06325 21.2726 3.12156 21.2821 3.95794 21.3006L4.84375 21.3204L5.09375 21.559C5.23125 21.6902 5.41394 21.8338 5.49975 21.8779C5.5855 21.922 5.81063 21.9581 6 21.9581C6.18937 21.9581 6.4145 21.922 6.50025 21.8779C6.58606 21.8338 6.76956 21.6887 6.90806 21.5555L7.15994 21.3133L18.0437 21.2971L28.9274 21.2809L29.0878 21.1303C29.1759 21.0475 29.2652 20.8881 29.2862 20.7762C29.3088 20.6564 29.2898 20.4999 29.2402 20.3955C29.194 20.2981 29.0577 20.1691 28.9374 20.1091C28.7317 20.0062 28.0756 19.9997 17.9178 19.9997L7.11694 19.9995L6.95687 19.8093ZM14.2272 6.45425C14.0466 6.26514 13.7007 6.018 13.4586 5.90521C13.2165 5.79234 12.8237 5.67974 12.5857 5.65499C12.3477 5.63015 11.9864 5.64429 11.7829 5.68627C11.5792 5.72833 11.2147 5.87557 10.9729 6.01346C10.731 6.15136 10.4014 6.42542 10.2403 6.62252C10.0793 6.81962 9.86932 7.19975 9.77378 7.46738C9.61125 7.92241 9.6 8.17145 9.6 11.3119V14.67L9.85296 14.935C10.0514 15.1428 10.1835 15.2 10.4654 15.2C10.7474 15.2 10.8794 15.1428 11.0779 14.935C11.3129 14.6888 11.3309 14.6214 11.3309 13.9831V13.2961H12.2714H13.212L13.2539 13.9798C13.2904 14.5756 13.3273 14.698 13.5411 14.9317C13.736 15.145 13.8604 15.2 14.147 15.2C14.4084 15.2 14.5697 15.1397 14.7332 14.9811C14.8572 14.8607 14.9813 14.6669 15.009 14.5504C15.0367 14.434 15.0479 12.87 15.0341 11.0749L15.0089 7.81117L14.7822 7.30474C14.6575 7.02614 14.4077 6.64346 14.2272 6.45425ZM21.7549 6.60656C21.5738 6.38481 21.2166 6.11237 20.8789 5.93822C20.3282 5.65418 20.2658 5.64302 19.0435 5.61138C17.9506 5.58301 17.7372 5.60096 17.4766 5.74293C17.3107 5.83332 17.1263 6.00929 17.0668 6.13395C16.9852 6.30494 16.9584 7.35805 16.9574 10.4222C16.9564 13.7483 16.9783 14.5287 17.0786 14.7317C17.1459 14.8682 17.2944 15.0322 17.4086 15.0962C17.5603 15.1812 18.0005 15.2048 19.0388 15.1837C20.3179 15.1576 20.5019 15.1335 20.8674 14.945C21.0909 14.8297 21.4292 14.5724 21.6192 14.3734C21.8092 14.1743 22.0549 13.8199 22.1649 13.5858C22.3578 13.1756 22.366 13.0662 22.3904 10.5673C22.4141 8.13855 22.4045 7.94317 22.2382 7.47772C22.1406 7.20447 21.9231 6.81236 21.7549 6.60656ZM11.5025 7.97091C11.5731 7.85931 11.7483 7.70727 11.8919 7.63302C12.0355 7.55877 12.2029 7.49703 12.264 7.49594C12.325 7.49476 12.5049 7.5507 12.6637 7.62024C12.8226 7.68977 13.016 7.84163 13.0936 7.95777C13.2112 8.13365 13.2348 8.43727 13.2348 9.78059V11.3923H12.2758H11.3168L11.3455 9.78304C11.3674 8.55168 11.4042 8.12621 11.5025 7.97091ZM18.7735 13.4112V10.4426V7.474L19.4226 7.50836C20.019 7.53991 20.0945 7.56657 20.3529 7.83719L20.6342 8.13165L20.6611 10.1925C20.681 11.7162 20.6584 12.3458 20.5746 12.6075C20.5122 12.8022 20.3576 13.042 20.231 13.1403C20.0727 13.2634 19.8096 13.3335 19.3872 13.3651L18.7735 13.4112Z" fill="#585DF9"/>
</svg>
