<svg width="19" height="19" viewBox="0 0 19 19" fill="none" xmlns="http://www.w3.org/2000/svg">
<g clip-path="url(#clip0_1137_1978)">
<path d="M18.4136 12.8248L16.3553 5.4061C15.9157 3.81914 14.958 2.4248 13.6345 1.44499C12.3111 0.465178 10.6979 -0.0437911 9.05173 -0.000914694C7.40559 0.0419617 5.82109 0.63422 4.55041 1.6816C3.27973 2.72898 2.39589 4.17129 2.03957 5.77897L0.44753 12.9436C0.370495 13.2907 0.372374 13.6506 0.453028 13.9969C0.533683 14.3432 0.691054 14.6669 0.913532 14.9443C1.13601 15.2216 1.41792 15.4454 1.73846 15.5993C2.05899 15.7531 2.40998 15.833 2.76553 15.8331H5.62107C5.80277 16.7279 6.28823 17.5324 6.9952 18.1103C7.70217 18.6881 8.58716 19.0038 9.50024 19.0038C10.4133 19.0038 11.2983 18.6881 12.0053 18.1103C12.7122 17.5324 13.1977 16.7279 13.3794 15.8331H16.1265C16.4923 15.833 16.8532 15.7483 17.1809 15.5857C17.5086 15.4231 17.7944 15.187 18.0158 14.8958C18.2373 14.6046 18.3885 14.2662 18.4576 13.907C18.5267 13.5478 18.512 13.1774 18.4144 12.8248H18.4136ZM9.50024 17.4165C9.01078 17.4144 8.53391 17.2612 8.13485 16.9778C7.7358 16.6944 7.43405 16.2946 7.2709 15.8331H11.7296C11.5664 16.2946 11.2647 16.6944 10.8656 16.9778C10.4666 17.2612 9.98969 17.4144 9.50024 17.4165ZM16.7559 13.9371C16.682 14.035 16.5863 14.1143 16.4763 14.1686C16.3663 14.2229 16.2452 14.2507 16.1225 14.2498H2.76553C2.64699 14.2498 2.52996 14.2231 2.42309 14.1718C2.31622 14.1205 2.22224 14.0459 2.14807 13.9534C2.07391 13.861 2.02146 13.753 1.99459 13.6375C1.96773 13.5221 1.96714 13.4021 1.99286 13.2863L3.5849 6.12177C3.86543 4.86001 4.55969 3.72824 5.55731 2.90637C6.55492 2.0845 7.79865 1.6197 9.09077 1.58585C10.3829 1.552 11.6492 1.95104 12.6885 2.71956C13.7278 3.48807 14.4804 4.58193 14.8266 5.82727L16.8849 13.246C16.9185 13.3633 16.9243 13.4868 16.902 13.6068C16.8796 13.7267 16.8295 13.8398 16.7559 13.9371Z" fill="white"/>
</g>
<defs>
<clipPath id="clip0_1137_1978">
<rect width="19" height="19" fill="white"/>
</clipPath>
</defs>
</svg>
