<svg width="37" height="30" viewBox="0 0 37 30" fill="none" xmlns="http://www.w3.org/2000/svg">
<path fill-rule="evenodd" clip-rule="evenodd" d="M5.94643 2.69091C4.12192 2.69091 2.64286 4.19686 2.64286 6.05455V23.5455C2.64286 25.4031 4.12192 26.9091 5.94643 26.9091H31.0536C32.8781 26.9091 34.3571 25.4031 34.3571 23.5455V6.05455C34.3571 4.19686 32.8781 2.69091 31.0536 2.69091H5.94643ZM0 6.05455C0 2.71071 2.66231 0 5.94643 0H31.0536C34.3377 0 37 2.71071 37 6.05455V23.5455C37 26.8893 34.3377 29.6 31.0536 29.6H5.94643C2.66231 29.6 0 26.8893 0 23.5455V6.05455Z" fill="white"/>
<path fill-rule="evenodd" clip-rule="evenodd" d="M35.7677 12.1238H1.23438V7.40039H35.7677V12.1238ZM5.17499 18.2642C5.17499 16.9599 6.31323 15.9025 7.71732 15.9025H11.785C13.1891 15.9025 14.3274 16.9599 14.3274 18.2642V19.8387C14.3274 21.143 13.1891 22.2004 11.785 22.2004H7.71732C6.31323 22.2004 5.17499 21.143 5.17499 19.8387V18.2642Z" fill="white"/>
</svg>
