<svg width="20" height="20" viewBox="0 0 20 20" fill="none" xmlns="http://www.w3.org/2000/svg">
<path fill-rule="evenodd" clip-rule="evenodd" d="M15.2852 0.00927035C15.2314 0.0193671 15.0728 0.0525926 14.9329 0.0831961C14.7929 0.11376 14.5745 0.174654 14.4475 0.218485C14.3204 0.262277 14.0695 0.376316 13.8898 0.471883C13.7102 0.567412 13.4529 0.729039 13.3182 0.830985C13.1835 0.93297 12.3812 1.70436 11.5355 2.54525C10.3805 3.69346 9.97357 4.12238 9.90095 4.26804C9.84775 4.37472 9.80437 4.52461 9.80449 4.60108C9.8046 4.67759 9.82183 4.8018 9.84281 4.87714C9.8638 4.95247 9.93732 5.08244 10.0062 5.16591C10.0751 5.24943 10.2032 5.35028 10.2908 5.39008C10.3785 5.42988 10.5345 5.46283 10.6374 5.4633C10.7404 5.46377 10.8901 5.43688 10.9702 5.40358C11.0685 5.36268 11.6246 4.83644 12.6818 3.7841C13.6528 2.81747 14.3336 2.17073 14.4738 2.08181C14.5981 2.003 14.7826 1.90297 14.8839 1.85957C14.9851 1.8162 15.1885 1.75535 15.3358 1.72439C15.483 1.6934 15.7125 1.66839 15.8456 1.66874C15.9788 1.66914 16.2111 1.69524 16.3618 1.72674C16.5126 1.75829 16.7856 1.85757 16.9687 1.94742C17.2246 2.07301 17.3713 2.18032 17.6039 2.41207C17.8414 2.64864 17.9403 2.78405 18.0641 3.04195C18.1507 3.22263 18.2498 3.50253 18.284 3.66396C18.3261 3.86194 18.34 4.06575 18.3268 4.29011C18.316 4.47307 18.2688 4.74604 18.222 4.8967C18.1752 5.04737 18.0656 5.29392 17.9785 5.44459C17.8441 5.67721 17.3941 6.14385 14.9965 8.53695C12.9293 10.6003 12.1134 11.39 11.951 11.4846C11.829 11.5557 11.6008 11.6585 11.4438 11.7131C11.2492 11.7808 11.0396 11.8188 10.7844 11.8329C10.484 11.8494 10.3464 11.8373 10.0853 11.7713C9.90659 11.7261 9.65133 11.6353 9.51803 11.5695C9.38476 11.5038 9.16122 11.3521 9.02126 11.2326C8.8813 11.1131 8.71636 10.9888 8.6547 10.9563C8.59308 10.9239 8.45214 10.8886 8.3415 10.878C8.17414 10.8619 8.10433 10.8772 7.9253 10.9693C7.78737 11.0403 7.66922 11.1392 7.59585 11.245C7.51356 11.3637 7.47645 11.4709 7.46345 11.6275C7.45127 11.7743 7.46658 11.9005 7.51043 12.0154C7.55118 12.122 7.66703 12.2735 7.82069 12.421C7.95556 12.5505 8.19289 12.7385 8.34804 12.8388C8.50319 12.9391 8.75778 13.0814 8.91379 13.1551C9.0698 13.2286 9.3648 13.3345 9.56935 13.3903C9.83487 13.4627 10.0824 13.4982 10.4344 13.5142C10.7408 13.5282 11.0518 13.5185 11.2557 13.4888C11.4361 13.4624 11.7251 13.3965 11.8978 13.3424C12.0706 13.2882 12.3653 13.1651 12.5526 13.0688C12.74 12.9726 13.013 12.8047 13.1595 12.6957C13.3058 12.5868 14.6784 11.2454 16.2097 9.71471C17.7409 8.18407 19.0856 6.80844 19.198 6.65777C19.3104 6.5071 19.489 6.20772 19.595 5.99248C19.701 5.77724 19.8358 5.42502 19.8946 5.20978C19.992 4.85326 20.0014 4.75922 19.9999 4.15314C19.9984 3.56244 19.9867 3.44566 19.8963 3.11141C19.8404 2.90439 19.732 2.59957 19.6555 2.43407C19.579 2.26856 19.4323 2.00652 19.3296 1.8517C19.2269 1.69688 19.005 1.42638 18.8364 1.25059C18.6679 1.07476 18.3836 0.83255 18.2047 0.712289C18.0258 0.592067 17.7459 0.432083 17.5828 0.356749C17.4197 0.281414 17.1223 0.174302 16.9219 0.118731C16.6223 0.0356472 16.4534 0.0153362 15.9703 0.00433936C15.6474 -0.003018 15.339 -0.000787311 15.2852 0.00927035ZM8.31656 6.97527C8.26273 6.98537 8.10417 7.0186 7.96421 7.0492C7.82425 7.07976 7.60584 7.14066 7.4788 7.18449C7.35179 7.22828 7.10088 7.34232 6.92119 7.43789C6.74153 7.53341 6.48428 7.69461 6.34956 7.79609C6.21485 7.89753 4.95744 9.12698 3.55537 10.5282C2.1533 11.9294 0.914248 13.1992 0.801927 13.3498C0.689606 13.5005 0.511005 13.7999 0.405027 14.0151C0.299049 14.2304 0.164217 14.5826 0.105414 14.7978C0.0080095 15.1543 -0.00138644 15.2484 0.000140397 15.8545C0.00162809 16.4452 0.0132556 16.5619 0.103652 16.8962C0.159636 17.1032 0.268042 17.408 0.344541 17.5735C0.421039 17.739 0.56742 18.0004 0.669836 18.1544C0.772212 18.3084 0.971093 18.5569 1.11176 18.7066C1.25242 18.8563 1.5069 19.0825 1.67731 19.2093C1.84773 19.3361 2.14848 19.5183 2.34568 19.6141C2.54284 19.71 2.87909 19.8356 3.09285 19.8933C3.44085 19.9872 3.5513 19.9983 4.14712 19.9999C4.75343 20.0014 4.8475 19.992 5.20416 19.8946C5.41948 19.8358 5.77183 19.7011 5.98715 19.5951C6.20248 19.4892 6.50197 19.3104 6.6527 19.1978C6.80342 19.0852 7.52053 18.4014 8.24625 17.6781C9.22918 16.6986 9.58595 16.3183 9.64499 16.1871C9.68856 16.0902 9.72462 15.9393 9.72509 15.8517C9.72564 15.754 9.6843 15.6103 9.61829 15.4802C9.54884 15.3433 9.45202 15.2273 9.34561 15.1536C9.2282 15.0723 9.11933 15.0342 8.96829 15.0217C8.8515 15.012 8.68794 15.0261 8.60478 15.0529C8.48663 15.091 8.15425 15.3983 7.08334 16.4598C5.99479 17.5387 5.65677 17.8507 5.43906 17.9777C5.28833 18.0656 5.04169 18.1759 4.89096 18.2227C4.74023 18.2695 4.46716 18.3166 4.28414 18.3274C4.06118 18.3405 3.85447 18.3266 3.65774 18.2853C3.49625 18.2514 3.21437 18.1501 3.03135 18.0602C2.77582 17.9348 2.62955 17.8279 2.40127 17.5996C2.17291 17.3714 2.06603 17.2253 1.94056 16.9698C1.85067 16.7868 1.75135 16.5139 1.71979 16.3632C1.68828 16.2125 1.66216 15.9804 1.66177 15.8472C1.66142 15.7141 1.6882 15.4764 1.72132 15.3189C1.75444 15.1615 1.84437 14.9055 1.92114 14.7501C1.99791 14.5947 2.17135 14.3394 2.30653 14.1827C2.44171 14.0259 3.63347 12.8234 4.95485 11.5104C6.67576 9.80042 7.42031 9.08629 7.57918 8.99322C7.70117 8.9218 7.93019 8.817 8.08812 8.76037C8.33629 8.67138 8.43906 8.65721 8.84508 8.65584C9.19262 8.65467 9.37544 8.67286 9.54759 8.72574C9.67557 8.76507 9.88698 8.84925 10.0174 8.9128C10.1478 8.97636 10.369 9.12589 10.5089 9.24513C10.6489 9.36434 10.8138 9.48844 10.8755 9.52088C10.9371 9.55332 11.0781 9.58858 11.1887 9.59923C11.3561 9.61535 11.4259 9.60005 11.6049 9.50792C11.7428 9.43689 11.861 9.33804 11.9344 9.23226C12.0157 9.11489 12.0538 9.00606 12.0663 8.85508C12.076 8.73775 12.0617 8.5755 12.0341 8.49218C12.0068 8.40933 11.8885 8.24097 11.7713 8.11813C11.654 7.99524 11.4124 7.79683 11.2344 7.6772C11.0564 7.5576 10.7773 7.39809 10.6142 7.32275C10.4511 7.24742 10.1537 7.14031 9.95326 7.08473C9.6536 7.00165 9.48471 6.98134 9.00168 6.97034C8.6787 6.96299 8.37039 6.96522 8.31656 6.97527Z" fill="white"/>
</svg>
