<svg width="11" height="11" viewBox="0 0 11 11" fill="none" xmlns="http://www.w3.org/2000/svg">
<path fill-rule="evenodd" clip-rule="evenodd" d="M5.5 1C3.01472 1 1 3.01472 1 5.5C1 7.98528 3.01472 10 5.5 10C7.98528 10 10 7.98528 10 5.5C10 3.01472 7.98528 1 5.5 1ZM0 5.5C0 2.46243 2.46243 0 5.5 0C8.53757 0 11 2.46243 11 5.5C11 8.53757 8.53757 11 5.5 11C2.46243 11 0 8.53757 0 5.5Z" fill="#1D255A"/>
<path fill-rule="evenodd" clip-rule="evenodd" d="M5.6 2C5.93137 2 6.2 2.22386 6.2 2.5V5.58589C6.2 5.58593 6.2 5.58586 6.2 5.58589C6.20007 5.71845 6.2633 5.84567 6.3758 5.93939L7.82426 7.14645C8.05858 7.34171 8.05858 7.65829 7.82426 7.85355C7.58995 8.04882 7.21005 8.04882 6.97574 7.85355L5.5274 6.64661C5.52738 6.64659 5.52742 6.64662 5.5274 6.64661C5.18985 6.36537 5.0001 5.98387 5 5.58611V2.5C5 2.22386 5.26863 2 5.6 2Z" fill="#1D255A"/>
</svg>
