<svg width="19" height="19" viewBox="0 0 19 19" fill="none" xmlns="http://www.w3.org/2000/svg">
<g clip-path="url(#clip0_1137_2033)">
<path d="M4.354 13.4585C5.00984 13.4585 5.5415 12.9268 5.5415 12.271C5.5415 11.6152 5.00984 11.0835 4.354 11.0835C3.69817 11.0835 3.1665 11.6152 3.1665 12.271C3.1665 12.9268 3.69817 13.4585 4.354 13.4585Z" fill="white"/>
<path d="M15.0417 2.375H3.95833C2.9089 2.37626 1.90282 2.7937 1.16076 3.53576C0.418698 4.27782 0.00125705 5.2839 0 6.33333L0 12.6667C0.00125705 13.7161 0.418698 14.7222 1.16076 15.4642C1.90282 16.2063 2.9089 16.6237 3.95833 16.625H15.0417C16.0911 16.6237 17.0972 16.2063 17.8392 15.4642C18.5813 14.7222 18.9987 13.7161 19 12.6667V6.33333C18.9987 5.2839 18.5813 4.27782 17.8392 3.53576C17.0972 2.7937 16.0911 2.37626 15.0417 2.375ZM3.95833 3.95833H15.0417C15.6716 3.95833 16.2756 4.20856 16.721 4.65395C17.1664 5.09935 17.4167 5.70344 17.4167 6.33333H1.58333C1.58333 5.70344 1.83356 5.09935 2.27895 4.65395C2.72435 4.20856 3.32844 3.95833 3.95833 3.95833ZM15.0417 15.0417H3.95833C3.32844 15.0417 2.72435 14.7914 2.27895 14.346C1.83356 13.9006 1.58333 13.2966 1.58333 12.6667V7.91667H17.4167V12.6667C17.4167 13.2966 17.1664 13.9006 16.721 14.346C16.2756 14.7914 15.6716 15.0417 15.0417 15.0417Z" fill="white"/>
</g>
<defs>
<clipPath id="clip0_1137_2033">
<rect width="19" height="19" fill="white"/>
</clipPath>
</defs>
</svg>
