<svg width="11" height="11" viewBox="0 0 11 11" fill="none" xmlns="http://www.w3.org/2000/svg">
<path d="M10.0153 0.177807L5.50057 4.69305L0.985809 0.177807C0.877222 0.0784292 0.734484 0.0247832 0.587331 0.0280441C0.440177 0.0313049 0.299955 0.0912214 0.195877 0.195311C0.0917978 0.299401 0.0318877 0.439638 0.0286272 0.586807C0.0253667 0.733976 0.079007 0.87673 0.178374 0.985328L4.69085 5.50057L0.177229 10.0147C0.122085 10.0672 0.078004 10.1303 0.047576 10.2001C0.017148 10.27 0.000987167 10.3452 4.38287e-05 10.4214C-0.000899509 10.4975 0.0133936 10.5731 0.0420828 10.6437C0.070772 10.7143 0.113278 10.7784 0.167103 10.8323C0.220928 10.8862 0.284985 10.9288 0.35551 10.9576C0.426034 10.9864 0.501602 11.0008 0.577771 11C0.65394 10.9991 0.729174 10.9831 0.79905 10.9527C0.868926 10.9224 0.932034 10.8784 0.984664 10.8233L5.50057 6.30924L10.0153 10.8245C10.1239 10.9239 10.2667 10.9775 10.4138 10.9742C10.561 10.971 10.7012 10.9111 10.8053 10.807C10.9093 10.7029 10.9693 10.5627 10.9725 10.4155C10.9758 10.2683 10.9221 10.1256 10.8228 10.017L6.30801 5.50172L10.8228 0.985328C10.8779 0.93277 10.922 0.869718 10.9524 0.799878C10.9829 0.730038 10.999 0.654819 11 0.578643C11.0009 0.502466 10.9866 0.42687 10.9579 0.356298C10.9292 0.285725 10.8867 0.221601 10.8329 0.167694C10.7791 0.113787 10.715 0.071185 10.6445 0.0423927C10.574 0.0136005 10.4984 -0.000801088 10.4222 3.43745e-05C10.3461 0.000869837 10.2708 0.0169256 10.201 0.0472578C10.1311 0.07759 10.068 0.121587 10.0153 0.176661V0.177807Z" fill="#DC7575"/>
</svg>
