<svg width="19" height="19" viewBox="0 0 19 19" fill="none" xmlns="http://www.w3.org/2000/svg">
<g clip-path="url(#clip0_1137_1999)">
<path d="M14.7695 0.736389L5.11751 10.3884C4.74887 10.755 4.45661 11.1912 4.25767 11.6716C4.05872 12.1519 3.95704 12.667 3.95851 13.1869V14.2501C3.95851 14.4601 4.04192 14.6615 4.19039 14.8099C4.33885 14.9584 4.54022 15.0418 4.75018 15.0418H5.81339C6.33332 15.0433 6.84839 14.9416 7.32876 14.7426C7.80913 14.5437 8.24527 14.2515 8.61193 13.8828L18.2639 4.2308C18.7266 3.76702 18.9864 3.13868 18.9864 2.4836C18.9864 1.82851 18.7266 1.20017 18.2639 0.736389C17.7934 0.286638 17.1676 0.0356445 16.5167 0.0356445C15.8658 0.0356445 15.24 0.286638 14.7695 0.736389ZM17.1445 3.11139L7.49251 12.7634C7.04611 13.2071 6.44277 13.4568 5.81339 13.4585H5.54185V13.1869C5.5435 12.5576 5.79325 11.9542 6.23693 11.5078L15.8889 1.85581C16.058 1.69427 16.2829 1.60413 16.5167 1.60413C16.7506 1.60413 16.9754 1.69427 17.1445 1.85581C17.3107 2.02246 17.4041 2.24823 17.4041 2.4836C17.4041 2.71897 17.3107 2.94473 17.1445 3.11139Z" fill="white"/>
<path d="M18.2083 7.10838C17.9984 7.10838 17.797 7.19178 17.6485 7.34025C17.5001 7.48872 17.4167 7.69008 17.4167 7.90004V11.875H14.25C13.6201 11.875 13.016 12.1252 12.5706 12.5706C12.1252 13.016 11.875 13.6201 11.875 14.25V17.4167H3.95833C3.32844 17.4167 2.72435 17.1664 2.27895 16.721C1.83356 16.2756 1.58333 15.6716 1.58333 15.0417V3.95833C1.58333 3.32844 1.83356 2.72435 2.27895 2.27895C2.72435 1.83356 3.32844 1.58333 3.95833 1.58333H11.1166C11.3265 1.58333 11.5279 1.49993 11.6764 1.35146C11.8248 1.20299 11.9083 1.00163 11.9083 0.791667C11.9083 0.581704 11.8248 0.38034 11.6764 0.231874C11.5279 0.0834075 11.3265 0 11.1166 0L3.95833 0C2.9089 0.00125705 1.90282 0.418698 1.16076 1.16076C0.418698 1.90282 0.00125705 2.9089 0 3.95833L0 15.0417C0.00125705 16.0911 0.418698 17.0972 1.16076 17.8392C1.90282 18.5813 2.9089 18.9987 3.95833 19H12.9382C13.4583 19.0015 13.9735 18.8998 14.454 18.7009C14.9345 18.5019 15.3707 18.2097 15.7375 17.841L17.8402 15.7368C18.2089 15.3701 18.5013 14.934 18.7004 14.4536C18.8994 13.9733 19.0013 13.4582 19 12.9382V7.90004C19 7.69008 18.9166 7.48872 18.7681 7.34025C18.6197 7.19178 18.4183 7.10838 18.2083 7.10838ZM14.6181 16.7216C14.2999 17.039 13.8974 17.2588 13.4583 17.3549V14.25C13.4583 14.04 13.5417 13.8387 13.6902 13.6902C13.8387 13.5417 14.04 13.4583 14.25 13.4583H17.3573C17.2594 13.8965 17.0398 14.2982 16.724 14.6173L14.6181 16.7216Z" fill="white"/>
</g>
<defs>
<clipPath id="clip0_1137_1999">
<rect width="19" height="19" fill="white"/>
</clipPath>
</defs>
</svg>
