<svg width="20" height="20" viewBox="0 0 20 20" fill="none" xmlns="http://www.w3.org/2000/svg">
<path d="M19.9969 3.74726V11.6022C19.9969 11.8009 19.9179 11.9916 19.7773 12.1321C19.6368 12.2727 19.4461 12.3517 19.2473 12.3517C19.0486 12.3517 18.8579 12.2727 18.7174 12.1321C18.5768 11.9916 18.4978 11.8009 18.4978 11.6022V3.74726C18.4972 3.15111 18.2601 2.57955 17.8385 2.15801C17.417 1.73646 16.8454 1.49936 16.2493 1.49873H3.74741C3.15126 1.49936 2.5797 1.73646 2.15816 2.15801C1.73661 2.57955 1.49951 3.15111 1.49888 3.74726V15.8594L9.66317 9.29021C10.3284 8.75717 11.1554 8.46682 12.0078 8.4671C12.8603 8.46737 13.6871 8.75824 14.352 9.29171L15.1731 9.94828C15.3284 10.0725 15.428 10.2534 15.45 10.451C15.4719 10.6487 15.4145 10.847 15.2902 11.0022C15.166 11.1575 14.9851 11.2571 14.7875 11.2791C14.5898 11.301 14.3915 11.2436 14.2362 11.1193L13.4118 10.4598C13.0161 10.135 12.5202 9.95726 12.0083 9.95685C11.4965 9.95644 11.0003 10.1334 10.6041 10.4575L1.87138 17.4834C2.07564 17.7946 2.35398 18.0501 2.6814 18.227C3.00883 18.404 3.37508 18.4968 3.74726 18.4972H11.887C12.0858 18.4972 12.2764 18.5762 12.417 18.7168C12.5575 18.8573 12.6365 19.048 12.6365 19.2467C12.6365 19.4455 12.5575 19.6362 12.417 19.7767C12.2764 19.9173 12.0858 19.9963 11.887 19.9963H3.74741C2.98742 19.9944 2.246 19.7612 1.62169 19.3278C0.997383 18.8944 0.519755 18.2813 0.252286 17.5699C0.229481 17.5184 0.212682 17.4643 0.202218 17.4089C0.0733918 17.0357 0.00512273 16.6442 0 16.2494V3.74756C0.00103173 2.75397 0.396194 1.80136 1.09878 1.09878C1.80136 0.396195 2.75396 0.00103173 3.74756 0H16.2494C17.243 0.00107127 18.1955 0.39621 18.898 1.09872C19.6006 1.80123 19.9957 2.75374 19.9969 3.74726ZM18.0331 13.5516C17.69 13.1564 17.2103 12.9052 16.69 12.8483C16.5951 12.8048 16.492 12.7823 16.3876 12.7823C16.2833 12.7823 16.1802 12.8048 16.0853 12.8483C15.5645 12.9049 15.0843 13.1561 14.7408 13.5516L12.9519 15.6911C12.8243 15.8436 12.7626 16.0406 12.7804 16.2387C12.7981 16.4368 12.8937 16.6197 13.0463 16.7473C13.1989 16.8748 13.3959 16.9365 13.594 16.9188C13.7921 16.9011 13.975 16.8054 14.1025 16.6528L15.6381 14.8164V19.2505C15.6381 19.4493 15.7171 19.6399 15.8577 19.7805C15.9982 19.921 16.1889 20 16.3876 20C16.5864 20 16.7771 19.921 16.9176 19.7805C17.0582 19.6399 17.1372 19.4493 17.1372 19.2505V14.818L18.6713 16.6528C18.7988 16.8054 18.9817 16.9011 19.1798 16.9188C19.3779 16.9365 19.5749 16.8748 19.7275 16.7473C19.8801 16.6197 19.9757 16.4368 19.9934 16.2387C20.0112 16.0406 19.9495 15.8436 19.8219 15.6911L18.0331 13.5516ZM6.01364 3.88697C6.49071 3.88703 6.95705 4.02855 7.35369 4.29363C7.75034 4.55871 8.05947 4.93546 8.24201 5.37622C8.42455 5.81699 8.47229 6.30198 8.37921 6.76988C8.28612 7.23778 8.05639 7.66757 7.71905 8.00491C7.38171 8.34225 6.95192 8.57199 6.48402 8.66507C6.01612 8.75816 5.53112 8.71041 5.09036 8.52787C4.64959 8.34534 4.27285 8.0362 4.00777 7.63956C3.74269 7.24291 3.60117 6.77657 3.60111 6.29951C3.60182 5.65988 3.85623 5.04666 4.30851 4.59438C4.76079 4.14209 5.37402 3.88769 6.01364 3.88697ZM6.01364 5.386C5.83305 5.38606 5.65653 5.43966 5.5064 5.54003C5.35627 5.64039 5.23927 5.78302 5.17019 5.94987C5.10111 6.11673 5.08305 6.30032 5.1183 6.47744C5.15354 6.65455 5.24051 6.81724 5.36821 6.94494C5.4959 7.07264 5.65859 7.1596 5.83571 7.19485C6.01283 7.2301 6.19642 7.21204 6.36327 7.14296C6.53013 7.07387 6.67275 6.95687 6.77312 6.80674C6.87349 6.65661 6.92709 6.48009 6.92715 6.29951C6.92691 6.0573 6.83059 5.82509 6.65932 5.65382C6.48806 5.48256 6.25585 5.38624 6.01364 5.386Z" fill="#A49FB6"/>
</svg>
