<svg width="375" height="227" viewBox="0 0 375 227" fill="none" xmlns="http://www.w3.org/2000/svg">
<rect x="-69" y="12" width="514" height="215"/>
<g clip-path="url(#clip0_1143_1171)">
<path d="M106.7 48H106.51C101.71 48.004 96.9574 48.9537 92.5244 50.7949C88.0914 52.636 84.0646 55.3327 80.674 58.7306C77.2835 62.1286 74.5957 66.1613 72.7642 70.5983C70.9327 75.0354 69.9934 79.7898 70 84.59C70.4064 92.8824 72.8667 100.944 77.16 108.05C83.93 118.71 103.72 142.18 106.62 145.6C106.62 145.6 106.68 145.76 106.71 145.72C106.74 145.68 106.81 145.6 106.81 145.6C109.7 142.17 129.44 118.65 136.19 108C140.466 100.886 142.906 92.821 143.29 84.53C143.287 79.7285 142.339 74.9746 140.498 70.5398C138.658 66.1051 135.962 62.0764 132.564 58.684C129.166 55.2917 125.133 52.602 120.695 50.7688C116.257 48.9356 111.502 47.9948 106.7 48ZM106.7 111.73C101.467 111.742 96.3481 110.201 91.9909 107.303C87.6338 104.405 84.2343 100.279 82.2226 95.4483C80.2109 90.6174 79.6773 85.2983 80.6895 80.1641C81.7017 75.0299 84.2141 70.3113 87.9088 66.6054C91.6034 62.8995 96.3144 60.3729 101.446 59.3452C106.577 58.3175 111.897 58.8349 116.734 60.832C121.571 62.8291 125.707 66.2161 128.618 70.5644C131.53 74.9128 133.086 80.027 133.09 85.26C133.095 92.2715 130.316 98.9983 125.364 103.962C120.412 108.925 113.692 111.719 106.68 111.73H106.7Z" fill="#585DF9"/>
</g>
<path d="M95.25 97C95.25 97 93 97 93 94.75C93 92.5 95.25 85.75 106.5 85.75C117.75 85.75 120 92.5 120 94.75C120 97 117.75 97 117.75 97H95.25ZM106.5 83.5C108.29 83.5 110.007 82.7888 111.273 81.523C112.539 80.2571 113.25 78.5402 113.25 76.75C113.25 74.9598 112.539 73.2429 111.273 71.977C110.007 70.7112 108.29 70 106.5 70C104.71 70 102.993 70.7112 101.727 71.977C100.461 73.2429 99.75 74.9598 99.75 76.75C99.75 78.5402 100.461 80.2571 101.727 81.523C102.993 82.7888 104.71 83.5 106.5 83.5Z" fill="white"/>
<g clip-path="url(#clip1_1143_1171)">
<path d="M274.438 35H274.291C270.572 35.0031 266.889 35.739 263.454 37.1657C260.019 38.5924 256.898 40.682 254.271 43.315C251.644 45.9481 249.561 49.073 248.142 52.5112C246.723 55.9495 245.995 59.6336 246 63.3532C246.315 69.7789 248.221 76.0257 251.548 81.5322C256.794 89.7925 272.129 107.979 274.376 110.629C274.376 110.629 274.423 110.753 274.446 110.722C274.469 110.691 274.524 110.629 274.524 110.629C276.763 107.971 292.059 89.746 297.29 81.4934C300.603 75.981 302.494 69.7313 302.792 63.3067C302.79 59.5861 302.055 55.9023 300.628 52.4659C299.202 49.0295 297.113 45.9077 294.48 43.279C291.847 40.6502 288.722 38.5661 285.283 37.1455C281.844 35.725 278.159 34.9959 274.438 35ZM274.438 84.3838C270.383 84.393 266.417 83.1991 263.041 80.9533C259.664 78.7074 257.03 75.5106 255.471 71.7672C253.912 68.0238 253.499 63.9021 254.283 59.9237C255.067 55.9452 257.014 52.2888 259.877 49.4172C262.74 46.5455 266.391 44.5876 270.367 43.7913C274.343 42.9949 278.466 43.3959 282.214 44.9434C285.962 46.4909 289.167 49.1155 291.423 52.4849C293.679 55.8544 294.885 59.8174 294.888 63.8724C294.892 69.3056 292.739 74.5181 288.901 78.3642C285.064 82.2104 279.856 84.3755 274.423 84.3838H274.438Z" fill="#585DF9"/>
</g>
<g clip-path="url(#clip2_1143_1171)">
<path d="M194.535 1.40415e-05H194.413C191.335 0.0025385 188.287 0.611568 185.445 1.79231C182.602 2.97304 180.019 4.70235 177.845 6.88142C175.671 9.06049 173.947 11.6466 172.773 14.492C171.598 17.3375 170.996 20.3864 171 23.4647C171.261 28.7826 172.838 33.9523 175.592 38.5094C179.933 45.3455 192.624 60.3965 194.484 62.5897C194.484 62.5897 194.522 62.6923 194.542 62.6667C194.561 62.641 194.606 62.5897 194.606 62.5897C196.459 60.3901 209.118 45.307 213.447 38.4773C216.189 33.9153 217.753 28.7431 218 23.4263C217.998 20.3471 217.39 17.2985 216.21 14.4545C215.029 11.6106 213.3 9.02705 211.121 6.85155C208.942 4.67606 206.356 2.95123 203.51 1.77561C200.664 0.600002 197.614 -0.00335621 194.535 1.40415e-05ZM194.535 40.8693C191.179 40.8769 187.897 39.8889 185.103 38.0303C182.308 36.1717 180.128 33.526 178.838 30.428C177.548 27.33 177.206 23.919 177.855 20.6265C178.504 17.334 180.115 14.308 182.485 11.9314C184.854 9.5549 187.875 7.93458 191.166 7.27553C194.456 6.61647 197.868 6.94829 200.97 8.229C204.072 9.50972 206.724 11.6818 208.591 14.4703C210.458 17.2588 211.456 20.5385 211.459 23.8944C211.462 28.3908 209.68 32.7046 206.504 35.8876C203.329 39.0707 199.019 40.8625 194.522 40.8693H194.535Z" fill="#585DF9"/>
</g>
<path d="M265.566 72.9699C265.566 72.9699 263.822 72.9699 263.822 71.2264C263.822 69.4829 265.566 64.2524 274.283 64.2524C283.001 64.2524 284.744 69.4829 284.744 71.2264C284.744 72.9699 283.001 72.9699 283.001 72.9699H265.566ZM274.283 62.5089C275.671 62.5089 277.001 61.9578 277.982 60.9769C278.963 59.996 279.514 58.6656 279.514 57.2784C279.514 55.8911 278.963 54.5607 277.982 53.5798C277.001 52.5989 275.671 52.0479 274.283 52.0479C272.896 52.0479 271.566 52.5989 270.585 53.5798C269.604 54.5607 269.053 55.8911 269.053 57.2784C269.053 58.6656 269.604 59.996 270.585 60.9769C271.566 61.9578 272.896 62.5089 274.283 62.5089Z" fill="white"/>
<path d="M187.193 31.4232C187.193 31.4232 185.75 31.4232 185.75 29.9803C185.75 28.5374 187.193 24.2087 194.407 24.2087C201.621 24.2087 203.064 28.5374 203.064 29.9803C203.064 31.4232 201.621 31.4232 201.621 31.4232H187.193ZM194.407 22.7658C195.555 22.7658 196.656 22.3097 197.468 21.4979C198.28 20.6862 198.736 19.5851 198.736 18.4371C198.736 17.2891 198.28 16.188 197.468 15.3762C196.656 14.5645 195.555 14.1084 194.407 14.1084C193.259 14.1084 192.158 14.5645 191.346 15.3762C190.534 16.188 190.078 17.2891 190.078 18.4371C190.078 19.5851 190.534 20.6862 191.346 21.4979C192.158 22.3097 193.259 22.7658 194.407 22.7658Z" fill="white"/>
<defs>
<clipPath id="clip0_1143_1171">
<rect width="73.29" height="97.73" fill="white" transform="translate(70 48)"/>
</clipPath>
<clipPath id="clip1_1143_1171">
<rect width="56.7917" height="75.73" fill="white" transform="translate(246 35)"/>
</clipPath>
<clipPath id="clip2_1143_1171">
<rect width="47" height="62.6731" fill="white" transform="translate(171)"/>
</clipPath>
</defs>
</svg>
