<svg width="151" height="137" viewBox="0 0 151 137" fill="none" xmlns="http://www.w3.org/2000/svg">
<path d="M94.4381 106.401L71.4981 89.6096L48.5582 106.401L57.322 79.2337L34.382 62.4465H62.738L71.4981 35.2795L80.262 62.4465H129.177L143 52.3291H88.3786L71.4981 0L54.6214 52.3291H0L44.1911 84.6709L27.3107 137L71.4981 104.658L115.689 137L94.4381 106.401Z" fill="url(#paint0_linear_1174_2206)"/>
<path d="M81.2739 60.4946L71.0407 28.7637L60.8038 60.4946H27.6865L54.4802 80.1035L44.2433 111.835L71.0407 92.2256L97.8344 111.835L94.4456 106.401L71.5057 89.6138L48.5657 106.401L57.3258 79.238L34.3859 62.4469H62.7419L71.5057 35.28L80.2658 62.4469H129.185L131.852 60.4946H81.2739Z" fill="white"/>
<path d="M106.005 96V76.3644H115.169C117.378 76.3644 119.049 76.9029 120.182 77.9799C121.333 79.0382 121.909 80.4958 121.909 82.3526C121.909 84.1908 121.333 85.6577 120.182 86.7532C119.049 87.8301 117.378 88.3686 115.169 88.3686H110.35V96H106.005ZM110.35 84.9985H114.612C115.651 84.9985 116.422 84.7664 116.923 84.3022C117.443 83.838 117.703 83.1881 117.703 82.3526C117.703 81.517 117.443 80.8764 116.923 80.4308C116.422 79.9666 115.651 79.7345 114.612 79.7345H110.35V84.9985ZM124.222 96V85.6113C124.222 84.9985 124.203 84.3765 124.166 83.7452C124.147 83.1139 124.101 82.4919 124.027 81.8791H128.065L128.539 86.0012H127.898C128.084 84.9985 128.381 84.1722 128.789 83.5224C129.216 82.8725 129.736 82.3897 130.349 82.0741C130.98 81.7584 131.695 81.6006 132.494 81.6006C132.846 81.6006 133.125 81.6192 133.329 81.6563C133.533 81.6749 133.738 81.7213 133.942 81.7956L133.914 85.4999C133.524 85.3327 133.19 85.2306 132.911 85.1935C132.651 85.1378 132.317 85.1099 131.909 85.1099C131.129 85.1099 130.479 85.2585 129.959 85.5556C129.458 85.8526 129.077 86.289 128.817 86.8646C128.576 87.4402 128.455 88.1365 128.455 88.9535V96H124.222ZM142.14 96.3064C140.636 96.3064 139.327 96.0093 138.213 95.4151C137.117 94.8024 136.263 93.9482 135.65 92.8527C135.056 91.7572 134.759 90.4482 134.759 88.9256C134.759 87.4216 135.056 86.1219 135.65 85.0264C136.263 83.9309 137.117 83.086 138.213 82.4919C139.327 81.8977 140.636 81.6006 142.14 81.6006C143.644 81.6006 144.953 81.8977 146.067 82.4919C147.181 83.086 148.035 83.9309 148.629 85.0264C149.242 86.1219 149.548 87.4216 149.548 88.9256C149.548 90.4482 149.242 91.7572 148.629 92.8527C148.035 93.9482 147.181 94.8024 146.067 95.4151C144.953 96.0093 143.644 96.3064 142.14 96.3064ZM142.14 93.1313C143.105 93.1313 143.867 92.7878 144.424 92.1007C144.999 91.4137 145.287 90.3554 145.287 88.9256C145.287 87.4959 144.999 86.4468 144.424 85.7784C143.867 85.1099 143.105 84.7757 142.14 84.7757C141.174 84.7757 140.404 85.1099 139.828 85.7784C139.271 86.4468 138.993 87.4959 138.993 88.9256C138.993 90.3554 139.271 91.4137 139.828 92.1007C140.404 92.7878 141.174 93.1313 142.14 93.1313Z" fill="white"/>
<defs>
<linearGradient id="paint0_linear_1174_2206" x1="71.5" y1="0" x2="130.693" y2="0" gradientUnits="userSpaceOnUse">
<stop stop-color="#4875E6"/>
<stop offset="1" stop-color="#8458E9"/>
</linearGradient>
</defs>
</svg>
