<svg xmlns="http://www.w3.org/2000/svg" xmlns:xlink="http://www.w3.org/1999/xlink"><defs><clipPath id="clip0_1137_1978"><path fill="#fff" d="M0 0h19v19H0z"/></clipPath><clipPath id="clip0_1137_2033"><path fill="#fff" d="M0 0h19v19H0z"/></clipPath><clipPath id="clip0_1137_1999"><path fill="#fff" d="M0 0h19v19H0z"/></clipPath><linearGradient id="paint0_linear_1179_1281" x1="6" y1="0" x2="10.967" y2="0" gradientUnits="userSpaceOnUse"><stop stop-color="#4875E6"/><stop offset="1" stop-color="#8458E9"/></linearGradient></defs><symbol id="ad" viewBox="0 0 32 24"><path fill-rule="evenodd" clip-rule="evenodd" d="M1.27.39a3.19 3.19 0 01.605-.276C2.199.01 2.999.004 15.979.001c13.144-.004 13.776.001 14.125.11.2.063.483.189.627.28.144.091.363.267.486.39s.298.341.39.486c.09.144.216.426.28.627.107.346.113.856.113 10.105s-.006 9.758-.114 10.105c-.063.2-.188.483-.28.627a3.416 3.416 0 01-.39.486 3.42 3.42 0 01-.485.39 3.202 3.202 0 01-.627.28c-.349.108-.986.113-14.104.113-13.118 0-13.755-.005-14.104-.114a3.202 3.202 0 01-.627-.28 3.417 3.417 0 01-.486-.39 3.412 3.412 0 01-.39-.485 3.2 3.2 0 01-.28-.627C.007 21.757 0 21.248 0 11.999 0 2.749.006 2.24.114 1.894a3.2 3.2 0 01.28-.627C.485 1.122.66.904.784.78c.122-.123.341-.299.485-.39zm5.687 19.42a1.532 1.532 0 00-.4-.313 1.28 1.28 0 00-.57-.12c-.2.002-.42.05-.558.123a1.548 1.548 0 00-.386.31l-.16.19h-.8c-.638 0-.846.022-1.02.11a.755.755 0 00-.303.285.682.682 0 00-.046.381c.02.112.11.271.198.354.151.143.21.152 1.046.17l.886.02.25.239c.137.131.32.275.406.319.085.044.31.08.5.08s.415-.036.5-.08c.086-.044.27-.19.408-.323l.252-.242 10.884-.016 10.883-.016.16-.15a.768.768 0 00.2-.355.68.68 0 00-.047-.38.754.754 0 00-.303-.287c-.205-.103-.861-.11-11.02-.11h-10.8l-.16-.19zm7.27-13.356a3.058 3.058 0 00-.768-.549 3.302 3.302 0 00-.873-.25c-.238-.025-.6-.01-.803.031-.204.042-.568.19-.81.327a3.13 3.13 0 00-.733.61 3.412 3.412 0 00-.466.844c-.163.455-.174.704-.174 3.845v3.358l.253.265c.198.208.33.265.612.265s.414-.057.613-.265c.235-.246.253-.314.253-.952v-.687H13.212l.042.684c.036.596.073.718.287.952.195.213.32.268.606.268.261 0 .423-.06.586-.219.124-.12.248-.314.276-.43.028-.117.039-1.681.025-3.476L15.01 7.81l-.227-.506a3.61 3.61 0 00-.555-.85zm7.528.153c-.181-.222-.538-.495-.876-.669-.55-.284-.613-.295-1.835-.327-1.093-.028-1.307-.01-1.567.132-.166.09-.35.266-.41.39-.082.172-.109 1.225-.11 4.29 0 3.325.021 4.106.122 4.309a.98.98 0 00.33.364c.151.085.591.109 1.63.088 1.279-.026 1.463-.05 1.828-.239.224-.115.562-.373.752-.572.19-.199.436-.553.546-.787.193-.41.201-.52.225-3.019.024-2.428.014-2.624-.152-3.09a3.519 3.519 0 00-.483-.87zM11.503 7.97c.07-.112.245-.264.389-.338.144-.074.31-.136.372-.137.061-.001.24.055.4.124.159.07.352.222.43.338.117.176.14.48.14 1.823v1.611h-1.918l.03-1.609c.021-1.231.058-1.657.156-1.812zm7.27 5.44V7.474l.65.034c.596.032.672.059.93.33l.281.294.027 2.06c.02 1.524-.003 2.154-.086 2.415-.063.195-.217.435-.344.533-.158.123-.421.194-.844.225l-.614.046z" fill="#585DF9"/></symbol><symbol id="arrow" viewBox="0 0 9 15"><path d="M6.839 14.808l1.612-1.746-5.225-5.658L8.45 1.746 6.84 0 0 7.404l6.839 7.404z"/></symbol><symbol id="bell" viewBox="0 0 19 19"><g clip-path="url(#clip0_1137_1978)"><path d="M18.414 12.825l-2.059-7.419A7.38 7.38 0 002.04 5.78L.448 12.944a2.375 2.375 0 002.318 2.89H5.62a3.959 3.959 0 007.758 0h2.748a2.374 2.374 0 002.287-3.01zM9.5 17.416a2.376 2.376 0 01-2.23-1.583h4.46a2.375 2.375 0 01-2.23 1.583zm7.256-3.479a.787.787 0 01-.634.313H2.766a.791.791 0 01-.773-.964l1.592-7.164a5.796 5.796 0 0111.242-.295l2.058 7.419a.788.788 0 01-.13.691z" fill="#fff"/></g></symbol><symbol id="browser" viewBox="0 0 19 19"><path d="M9.5 0A9.5 9.5 0 1019 9.5 9.51 9.51 0 009.5 0zm6.846 5.542h-2.55a15.575 15.575 0 00-2.234-3.677 7.94 7.94 0 014.784 3.677zM13.062 9.5a8.085 8.085 0 01-.376 2.375H6.314A8.084 8.084 0 015.937 9.5a8.084 8.084 0 01.377-2.375h6.372c.243.768.37 1.569.377 2.375zM6.95 13.458h5.102A15.53 15.53 0 019.5 17.09a15.492 15.492 0 01-2.55-3.632zm0-7.916A15.528 15.528 0 019.5 1.91a15.494 15.494 0 012.55 3.632h-5.1zm.493-3.677a15.577 15.577 0 00-2.238 3.677h-2.55a7.941 7.941 0 014.788-3.677zm-5.494 5.26h2.723A9.512 9.512 0 004.354 9.5c.005.802.112 1.6.317 2.375H1.948a7.91 7.91 0 010-4.75zm.706 6.333h2.55a15.578 15.578 0 002.238 3.677 7.94 7.94 0 01-4.788-3.677zm8.908 3.677a15.575 15.575 0 002.234-3.677h2.55a7.94 7.94 0 01-4.784 3.677zm5.49-5.26h-2.723a9.513 9.513 0 00.317-2.375 9.513 9.513 0 00-.317-2.375h2.721a7.91 7.91 0 010 4.75h.002z" fill="#fff"/></symbol><symbol id="calendar" viewBox="0 0 12 13"><path d="M12 11.7V2.6c0-.717-.598-1.3-1.333-1.3H9.333V0H8v1.3H4V0H2.667v1.3H1.333C.598 1.3 0 1.883 0 2.6v9.1c0 .717.598 1.3 1.333 1.3h9.334c.735 0 1.333-.583 1.333-1.3zm-8-1.3H2.667V9.1H4v1.3zm0-2.6H2.667V6.5H4v1.3zm2.667 2.6H5.333V9.1h1.334v1.3zm0-2.6H5.333V6.5h1.334v1.3zm2.666 2.6H8V9.1h1.333v1.3zm0-2.6H8V6.5h1.333v1.3zm1.334-3.25H1.333v-1.3h9.334v1.3z"/></symbol><symbol id="card" viewBox="0 0 37 30"><path fill-rule="evenodd" clip-rule="evenodd" d="M5.946 2.69c-1.824 0-3.303 1.507-3.303 3.365v17.49c0 1.858 1.479 3.364 3.303 3.364h25.108c1.824 0 3.303-1.506 3.303-3.363V6.055c0-1.858-1.479-3.364-3.303-3.364H5.946zM0 6.056C0 2.71 2.662 0 5.946 0h25.108C34.338 0 37 2.71 37 6.055v17.49c0 3.344-2.662 6.055-5.946 6.055H5.946C2.662 29.6 0 26.89 0 23.545V6.056z" fill="#fff"/><path fill-rule="evenodd" clip-rule="evenodd" d="M35.768 12.124H1.234V7.4h34.534v4.724zm-30.593 6.14c0-1.304 1.138-2.361 2.542-2.361h4.068c1.404 0 2.542 1.057 2.542 2.361v1.575c0 1.304-1.138 2.361-2.542 2.361H7.717c-1.404 0-2.542-1.057-2.542-2.361v-1.575z" fill="#fff"/></symbol><symbol id="chain" viewBox="0 0 20 20"><path fill-rule="evenodd" clip-rule="evenodd" d="M15.285.01c-.054.01-.212.043-.352.073-.14.03-.358.092-.486.135a4.898 4.898 0 00-1.129.613c-.134.102-.937.873-1.782 1.714C10.38 3.693 9.974 4.122 9.9 4.268a.936.936 0 00-.097.333c0 .077.018.2.039.276a.977.977 0 00.163.289.96.96 0 00.285.224c.088.04.243.073.346.073.103 0 .253-.026.333-.06.098-.04.655-.567 1.712-1.619.97-.967 1.652-1.613 1.792-1.702.124-.079.309-.179.41-.222.101-.044.304-.105.452-.136.147-.03.377-.056.51-.055.133 0 .365.026.516.058.15.031.424.13.607.22.256.126.402.233.635.465.237.237.336.372.46.63.087.18.186.46.22.622.042.198.056.402.043.626-.011.183-.058.456-.105.607a3.26 3.26 0 01-.244.548c-.134.232-.584.699-2.982 3.092-2.067 2.063-2.883 2.853-3.045 2.948-.122.07-.35.174-.507.228a2.36 2.36 0 01-.66.12c-.3.016-.438.004-.699-.062a3.49 3.49 0 01-.567-.202 2.947 2.947 0 01-.497-.336 3.037 3.037 0 00-.366-.277 1.048 1.048 0 00-.313-.078c-.168-.016-.238 0-.417.091a.914.914 0 00-.33.276.715.715 0 00-.132.383.865.865 0 00.047.387c.041.107.157.258.31.406.136.13.373.318.528.418.155.1.41.242.566.316.156.074.45.18.655.235.266.073.513.108.865.124.307.014.618.005.822-.025.18-.027.47-.093.642-.147a5.05 5.05 0 00.655-.273c.187-.096.46-.264.606-.373.147-.11 1.52-1.45 3.05-2.981 1.532-1.53 2.877-2.907 2.989-3.057.112-.15.291-.45.397-.666.106-.215.24-.567.3-.782.097-.357.106-.45.105-1.057-.002-.59-.013-.707-.104-1.042a5.17 5.17 0 00-.24-.677 5.291 5.291 0 00-.326-.582 5.344 5.344 0 00-.494-.601 4.688 4.688 0 00-.631-.539 5.493 5.493 0 00-.622-.355 5.267 5.267 0 00-.661-.238c-.3-.083-.469-.104-.952-.115a7.389 7.389 0 00-.685.005zM8.317 6.974c-.054.01-.213.044-.353.074a5.21 5.21 0 00-.485.135 4.903 4.903 0 00-1.13.612c-.134.102-1.392 1.331-2.794 2.732C2.153 11.93.915 13.2.802 13.35c-.112.15-.291.45-.397.665-.106.215-.24.568-.3.783-.097.356-.106.45-.105 1.056.002.591.013.708.104 1.042.056.207.164.512.24.677.077.166.223.427.326.581.102.154.301.403.442.553.14.15.395.375.565.502.17.127.471.31.669.405.197.096.533.222.747.28.348.093.458.104 1.054.106.606.001.7-.008 1.057-.105a5.32 5.32 0 00.783-.3c.215-.106.515-.285.666-.397.15-.113.868-.797 1.593-1.52.983-.98 1.34-1.36 1.399-1.49.044-.098.08-.249.08-.336a.907.907 0 00-.107-.372.887.887 0 00-.272-.326.714.714 0 00-.378-.132c-.117-.01-.28.004-.363.03-.118.039-.45.346-1.522 1.408-1.088 1.079-1.426 1.39-1.644 1.518-.15.088-.397.198-.548.245a3.09 3.09 0 01-.607.104c-.223.013-.43 0-.626-.042a3.254 3.254 0 01-.627-.225 2.064 2.064 0 01-.63-.46 2.063 2.063 0 01-.46-.63 3.171 3.171 0 01-.221-.607 3.105 3.105 0 01-.058-.516c0-.133.026-.37.06-.528.032-.158.122-.414.2-.569a3.3 3.3 0 01.385-.567c.135-.157 1.326-1.36 2.648-2.673C6.675 9.8 7.42 9.086 7.579 8.993c.122-.071.351-.176.51-.233.247-.089.35-.103.756-.104.348-.001.53.017.703.07.128.04.339.123.47.187.13.063.351.213.49.332.14.12.306.243.368.276.061.032.202.068.313.078.167.016.237.001.416-.091a.915.915 0 00.33-.276.714.714 0 00.131-.377c.01-.117-.004-.28-.032-.363-.027-.083-.146-.251-.263-.374a3.919 3.919 0 00-.537-.44 5.48 5.48 0 00-.62-.355 5.268 5.268 0 00-.66-.238c-.3-.083-.47-.104-.952-.115a7.395 7.395 0 00-.685.005z" fill="#fff"/></symbol><symbol id="circle" viewBox="0 0 13 17"><path d="M8.089 3.3h0a.53.53 0 01.676-.323m-.676.322l.322.677A4.807 4.807 0 0111.61 8.5c0 .817-.21 1.624-.605 2.334a.53.53 0 00.205.72M8.089 3.3a.53.53 0 00.322.677l-.322-.677zm.676-.322l-.017.047m.017-.047s0 0 0 0l-.017.047m.017-.047A5.869 5.869 0 0112.669 8.5c0 .997-.256 1.983-.74 2.85h0a.53.53 0 01-.72.205m-2.46-8.531a.48.48 0 00-.613.292l.612-.292zm2.46 8.53s0 0 0 0l.024-.043-.024.044s0 0 0 0zm-9.03.536A5.8 5.8 0 01.95 8.5a5.869 5.869 0 013.904-5.524s0 0 0 0l.016.047L2.18 12.09zm0 0c.104.135.26.205.418.205m-.418-.205l.418.205m0 0a.528.528 0 00.325-.111l-.325.11zm2.61-8.32A.53.53 0 005.53 3.3l-2.554 8.172.04-.03s0 0 0 0A4.754 4.754 0 012.01 8.5a4.808 4.808 0 013.197-4.525z" fill="#fff" stroke="#A49FB6" stroke-width=".1"/><path d="M4.854 14.023h0a5.869 5.869 0 01-3.585-7.436l3.585 7.436zm0 0a.532.532 0 00.676-.323h0m-.676.323l.676-.323m0 0a.53.53 0 00-.322-.677 4.807 4.807 0 01-2.936-6.09L5.53 13.7zM4.163 1.95h0l2.17 1.122-1.155 2.236s0 0 0 0a.53.53 0 10.942.486h0l1.397-2.707a.53.53 0 00-.227-.714h0L4.65 1.01h0a.53.53 0 00-.487.942zM8.089 13.7h0a.53.53 0 00.676.323A5.869 5.869 0 0012.668 8.5a5.82 5.82 0 00-1.716-4.143.53.53 0 10-.749.75A4.766 4.766 0 0111.609 8.5a4.808 4.808 0 01-3.198 4.523.53.53 0 00-.322.677z" fill="#fff" stroke="#A49FB6" stroke-width=".1"/><path d="M6.329 14.627h0a.53.53 0 01-.228-.714s0 0 0 0l1.397-2.707h0a.53.53 0 01.715-.228s0 0 0 0l-.023.044a.48.48 0 01.206.647l-2.067 2.958zm0 0l2.64 1.364-2.64-1.364zm2.111-2.935l-1.154 2.236 2.17 1.12h0a.53.53 0 01.227.714l-1.243-4.07zm0 0s0 0 0 0h0z" fill="#fff" stroke="#A49FB6" stroke-width=".1"/></symbol><symbol id="clock" viewBox="0 0 11 11"><path fill-rule="evenodd" clip-rule="evenodd" d="M5.5 1a4.5 4.5 0 100 9 4.5 4.5 0 000-9zM0 5.5a5.5 5.5 0 1111 0 5.5 5.5 0 01-11 0z"/><path fill-rule="evenodd" clip-rule="evenodd" d="M5.6 2c.331 0 .6.224.6.5v3.086c0 .132.063.26.176.353l1.448 1.207a.444.444 0 010 .708.688.688 0 01-.848 0L5.527 6.647C5.19 6.365 5 5.984 5 5.587V2.5c0-.276.269-.5.6-.5z"/></symbol><symbol id="credit-card" viewBox="0 0 19 19"><g clip-path="url(#clip0_1137_2033)" fill="#fff"><path d="M4.354 13.459a1.188 1.188 0 100-2.376 1.188 1.188 0 000 2.376z"/><path d="M15.042 2.375H3.958A3.963 3.963 0 000 6.333v6.334a3.963 3.963 0 003.958 3.958h11.084A3.963 3.963 0 0019 12.667V6.333a3.963 3.963 0 00-3.958-3.958zM3.958 3.958h11.084a2.375 2.375 0 012.375 2.375H1.583a2.375 2.375 0 012.375-2.375zm11.084 11.084H3.958a2.375 2.375 0 01-2.375-2.375v-4.75h15.834v4.75a2.375 2.375 0 01-2.375 2.375z"/></g></symbol><symbol id="cross" viewBox="0 0 11 11"><path d="M10.015.178L5.501 4.693.986.178a.571.571 0 00-.808.807l4.513 4.516-4.514 4.514a.571.571 0 10.808.808L5.5 6.31l4.514 4.516a.571.571 0 00.808-.808L6.308 5.502 10.823.985a.572.572 0 10-.808-.808z"/></symbol><symbol id="edit" viewBox="0 0 19 19"><g clip-path="url(#clip0_1137_1999)" fill="#fff"><path d="M14.77.736l-9.652 9.652a3.93 3.93 0 00-1.16 2.799v1.063a.791.791 0 00.792.792h1.063a3.93 3.93 0 002.799-1.16l9.652-9.651a2.474 2.474 0 000-3.495 2.529 2.529 0 00-3.494 0zm2.375 2.375l-9.652 9.652a2.39 2.39 0 01-1.68.696h-.271v-.272a2.39 2.39 0 01.695-1.68l9.652-9.651a.909.909 0 011.256 0 .89.89 0 010 1.255z"/><path d="M18.208 7.108a.792.792 0 00-.791.792v3.975H14.25a2.375 2.375 0 00-2.375 2.375v3.167H3.958a2.375 2.375 0 01-2.375-2.375V3.958a2.375 2.375 0 012.375-2.375h7.159a.792.792 0 000-1.583H3.958A3.963 3.963 0 000 3.958v11.084A3.963 3.963 0 003.958 19h8.98a3.934 3.934 0 002.8-1.159l2.102-2.104A3.934 3.934 0 0019 12.938V7.9a.792.792 0 00-.792-.792zm-3.59 9.614c-.318.317-.72.537-1.16.633V14.25a.792.792 0 01.792-.792h3.107c-.098.438-.317.84-.633 1.16l-2.106 2.104z"/></g></symbol><symbol id="eye-closed" viewBox="0 0 22 20"><path d="M16.411 15.411L20 19m-7.125-2.175c-.618.117-1.246.175-1.875.175-4.478 0-8.268-2.943-9.543-7A9.97 9.97 0 013.02 6.971l9.855 9.854zM8.878 7.879a3 3 0 014.243 4.243L8.878 7.879zm0-.001l4.242 4.242-4.242-4.242zm.002.002L5.59 4.59l3.29 3.29zm4.242 4.242l3.29 3.29-3.29-3.29zM2 1l3.59 3.59L2 1zm3.59 3.59A9.953 9.953 0 0111 3c4.478 0 8.268 2.943 9.543 7a10.025 10.025 0 01-4.132 5.411L5.59 4.59z" stroke="#fff" stroke-width="2" stroke-linecap="round" stroke-linejoin="round"/></symbol><symbol id="eye" viewBox="0 0 22 16"><path d="M11 2.5A9.77 9.77 0 0119.82 8 9.76 9.76 0 0111 13.5 9.76 9.76 0 012.18 8 9.77 9.77 0 0111 2.5zm0-2C6 .5 1.73 3.61 0 8c1.73 4.39 6 7.5 11 7.5s9.27-3.11 11-7.5C20.27 3.61 16 .5 11 .5zm0 5a2.5 2.5 0 110 5 2.5 2.5 0 010-5zm0-2C8.52 3.5 6.5 5.52 6.5 8s2.02 4.5 4.5 4.5 4.5-2.02 4.5-4.5-2.02-4.5-4.5-4.5z"/></symbol><symbol id="info" viewBox="0 0 12 12"><path d="M6 .75a5.25 5.25 0 100 10.5A5.25 5.25 0 006 .75zm0 9.61a4.36 4.36 0 11.002-8.72A4.36 4.36 0 016 10.36z" fill="#585DF9"/><path d="M5.438 3.938a.563.563 0 101.125 0 .563.563 0 00-1.125 0zM6.28 5.25H5.72a.094.094 0 00-.094.094V8.53c0 .052.042.094.094.094h.562a.094.094 0 00.094-.094V5.344a.094.094 0 00-.094-.094z" fill="#585DF9"/></symbol><symbol id="question" viewBox="0 0 15 20"><path d="M7.892 0C4.774 0 2.754 1.277 1.169 3.556A.938.938 0 001.37 4.84l1.685 1.278a.937.937 0 001.299-.162c.978-1.226 1.704-1.932 3.233-1.932 1.201 0 2.688.773 2.688 1.939 0 .88-.727 1.333-1.914 1.998-1.384.776-3.215 1.741-3.215 4.157v.382c0 .518.42.938.938.938h2.83c.518 0 .938-.42.938-.938v-.226c0-1.674 4.893-1.743 4.893-6.274 0-3.412-3.539-6-6.854-6zM7.5 14.588a2.709 2.709 0 00-2.706 2.706A2.709 2.709 0 007.5 20a2.709 2.709 0 002.706-2.706A2.709 2.709 0 007.5 14.588z" fill="#D8D8D8"/></symbol><symbol id="remove" viewBox="0 0 18 18"><path d="M15.364 2.636a9 9 0 00-12.728 0 9 9 0 000 12.728A9 9 0 0015.364 2.636zM12.818 11.8a.72.72 0 01-1.018 1.018l-2.8-2.8-2.8 2.8A.719.719 0 115.182 11.8l2.8-2.8-2.8-2.8A.72.72 0 016.2 5.182l2.8 2.8 2.8-2.8A.72.72 0 1112.818 6.2l-2.8 2.8 2.8 2.8z" fill="#A49FB6"/></symbol><symbol id="settings" viewBox="0 0 20 20"><path d="M11.82 20H8.18a1 1 0 01-.977-.786l-.407-1.884a8.003 8.003 0 01-1.535-.887l-1.837.585a1 1 0 01-1.17-.453L.43 13.424a1.006 1.006 0 01.193-1.239l1.425-1.3a8.1 8.1 0 010-1.772L.623 7.816a1.006 1.006 0 01-.193-1.24l1.82-3.153a1 1 0 011.17-.453l1.837.585c.244-.18.498-.348.76-.5.253-.142.513-.271.779-.386L7.204.787A1 1 0 018.18 0h3.64a1 1 0 01.976.787l.412 1.883c.542.24 1.057.537 1.535.887l1.838-.585a1 1 0 011.169.453l1.82 3.153c.232.407.152.922-.193 1.239l-1.425 1.3a8.1 8.1 0 010 1.772l1.425 1.3c.345.318.425.832.193 1.239l-1.82 3.153a1 1 0 01-1.17.453l-1.837-.585a7.985 7.985 0 01-1.534.886l-.413 1.879a1 1 0 01-.976.786zM9.996 6a4 4 0 100 8 4 4 0 000-8z" fill="#585DF9"/></symbol><symbol id="share" viewBox="0 0 21 21"><path d="M14.111 18.266h0H5.31v0h-.005a2.492 2.492 0 01-2.572-2.394V6.711a2.492 2.492 0 012.572-2.394H10.5a.942.942 0 100-1.884H5.31A4.375 4.375 0 00.85 6.704h0v9.171h0v.003a4.375 4.375 0 004.461 4.271h8.794a4.375 4.375 0 004.46-4.27h0V10.5a.941.941 0 10-1.882 0v5.372a2.491 2.491 0 01-2.572 2.394z" fill="#fff" stroke="#fff" stroke-width=".3"/><path d="M19.208.85h0c.125 0 .248.027.361.077M19.208.85l.362.077s0 0 0 0M19.207.85h-5.542a.942.942 0 000 1.883h3.268l-7.89 7.891a.942.942 0 00.298 1.548l.057-.138-.057.138a.94.94 0 001.033-.216l7.891-7.891M19.208.85l-.942 3.215M19.569.927a.963.963 0 01.58.861v.004h0v5.541a.942.942 0 11-1.883 0V4.065M19.569.927l-1.303 3.138" fill="#fff" stroke="#fff" stroke-width=".3"/></symbol><symbol id="star" viewBox="0 0 27 25"><path d="M13.5 0l3.03 9.328h9.81l-7.936 5.766 3.031 9.328-7.935-5.765-7.935 5.765 3.03-9.329L.662 9.329h9.808L13.5 0z" fill="#585DF9"/></symbol><symbol id="tick-bold" viewBox="0 0 11 11"><path d="M9.395.645L4.355 7.29l-2.98-2.978L0 5.687l4.583 4.583L11 2.02 9.395.645z" fill="#1D255A"/></symbol><symbol id="tick-gradient" viewBox="0 0 12 9"><path d="M11.786.217a.725.725 0 00-1.035 0l-6.91 6.995L1.25 4.588a.725.725 0 00-1.035 0 .748.748 0 000 1.047l3.11 3.148c.286.29.749.29 1.035 0l7.427-7.518a.748.748 0 000-1.048z" fill="url(#paint0_linear_1179_1281)"/></symbol><symbol id="tick-yellow" viewBox="0 0 12 9"><path d="M11.786.217a.725.725 0 00-1.035 0l-6.91 6.995L1.25 4.588a.725.725 0 00-1.035 0 .748.748 0 000 1.047l3.11 3.148c.286.29.749.29 1.035 0l7.427-7.518a.748.748 0 000-1.048z" fill="#FFCA28"/></symbol><symbol id="tick" viewBox="0 0 12 9"><path d="M11.786.217a.725.725 0 00-1.035 0l-6.91 6.995L1.25 4.588a.725.725 0 00-1.035 0 .748.748 0 000 1.047l3.11 3.148c.286.29.749.29 1.035 0l7.427-7.518a.748.748 0 000-1.048z" fill="#fff"/></symbol><symbol id="upload" viewBox="0 0 20 20"><path d="M19.997 3.747v7.855a.75.75 0 01-1.5 0V3.747A2.25 2.25 0 0016.25 1.5H3.747A2.25 2.25 0 001.5 3.747V15.86L9.663 9.29a3.748 3.748 0 014.689.002l.821.656a.75.75 0 11-.937 1.171l-.824-.66a2.215 2.215 0 00-2.808-.002l-8.733 7.026a2.246 2.246 0 001.876 1.014h8.14a.75.75 0 010 1.5h-8.14A3.744 3.744 0 01.252 17.57a.735.735 0 01-.05-.161A3.7 3.7 0 010 16.249V3.748A3.751 3.751 0 013.748 0h12.501a3.751 3.751 0 013.748 3.747zm-1.964 9.805a2.078 2.078 0 00-1.343-.704.726.726 0 00-.605 0 2.078 2.078 0 00-1.344.704l-1.79 2.14a.749.749 0 101.151.96l1.536-1.836v4.434a.75.75 0 001.5 0v-4.432l1.533 1.835a.75.75 0 101.15-.962l-1.788-2.14zM6.013 3.887a2.412 2.412 0 110 4.824 2.412 2.412 0 010-4.824zm0 1.499a.913.913 0 10.001 1.826.913.913 0 000-1.826z"/></symbol></svg>